<svg width="22" height="19" viewBox="0 0 22 19" fill="none" xmlns="http://www.w3.org/2000/svg">
<path d="M1 13.822V6.02312H4.87724V13.822H1Z" fill="black"/>
<path d="M15.1892 18C15.1892 18 6.74406 18 6.74406 13.822V6.02312C6.74406 1.56661 15.1892 1 15.1892 1V18Z" fill="black"/>
<path d="M17.7432 4.68335L20.8649 2.70001M17.7432 9.2167H22M17.7432 13.822L20.8649 15.7334M1 6.02312V13.822H4.87724V6.02312H1ZM6.74406 13.822C6.74406 18 15.1892 18 15.1892 18V1C15.1892 1 6.74406 1.56661 6.74406 6.02312C6.74406 10.4796 6.74406 9.64404 6.74406 13.822Z" stroke="black"/>
</svg>
