<svg width="27" height="23" viewBox="0 0 27 23" fill="none" xmlns="http://www.w3.org/2000/svg">
<path d="M1 16.839V7.20503H5.80039V16.839H1Z" fill="#15B2B3"/>
<path d="M18.5676 22C18.5676 22 8.11169 22 8.11169 16.839V7.20503C8.11169 1.69993 18.5676 1 18.5676 1V22Z" fill="#15B2B3"/>
<path d="M21.7297 5.55002L25.5946 3.10001M21.7297 11.15H27M21.7297 16.839L25.5946 19.2001M1 7.20503V16.839H5.80039V7.20503H1ZM8.11169 16.839C8.11169 22 18.5676 22 18.5676 22V1C18.5676 1 8.11169 1.69993 8.11169 7.20503C8.11169 12.7101 8.11169 11.6779 8.11169 16.839Z" stroke="#15B2B3"/>
</svg>
